<svg width="228" height="62" viewBox="0 0 228 62" fill="none" xmlns="http://www.w3.org/2000/svg">
<path d="M57.148 36C56.308 36 55.66 35.772 55.204 35.316C54.748 34.86 54.52 34.212 54.52 33.372V13.212C54.52 12.372 54.772 11.7 55.276 11.196C55.78 10.692 56.464 10.44 57.328 10.44C58.192 10.44 58.876 10.692 59.38 11.196C59.884 11.7 60.136 12.372 60.136 13.212V31.428H69.352C71.104 31.428 71.98 32.196 71.98 33.732C71.98 35.244 71.104 36 69.352 36H57.148ZM88.3814 30.744C88.8614 30.744 89.2454 30.936 89.5334 31.32C89.8454 31.704 90.0014 32.196 90.0014 32.796C90.0014 33.204 89.8814 33.588 89.6414 33.948C89.4014 34.284 89.0654 34.572 88.6334 34.812C87.8174 35.244 86.8694 35.604 85.7894 35.892C84.7094 36.156 83.7134 36.288 82.8014 36.288C80.8814 36.288 79.2014 35.916 77.7614 35.172C76.3454 34.428 75.2534 33.372 74.4854 32.004C73.7174 30.612 73.3334 28.98 73.3334 27.108C73.3334 25.308 73.7054 23.712 74.4494 22.32C75.1934 20.928 76.2254 19.848 77.5454 19.08C78.8654 18.288 80.3654 17.892 82.0454 17.892C83.6534 17.892 85.0574 18.252 86.2574 18.972C87.4814 19.668 88.4294 20.676 89.1014 21.996C89.7734 23.292 90.1094 24.816 90.1094 26.568C90.1094 27.096 89.9774 27.504 89.7134 27.792C89.4734 28.056 89.1254 28.188 88.6694 28.188H78.5894C78.7574 29.604 79.1894 30.636 79.8854 31.284C80.5814 31.908 81.5774 32.22 82.8734 32.22C83.5694 32.22 84.1934 32.136 84.7454 31.968C85.2974 31.8 85.9094 31.572 86.5814 31.284C86.9174 31.14 87.2414 31.02 87.5534 30.924C87.8654 30.804 88.1414 30.744 88.3814 30.744ZM82.1894 21.636C81.1574 21.636 80.3294 21.972 79.7054 22.644C79.0814 23.292 78.7094 24.24 78.5894 25.488H85.5374C85.4654 24.216 85.1414 23.256 84.5654 22.608C84.0134 21.96 83.2214 21.636 82.1894 21.636ZM104.337 17.892C105.849 17.892 107.193 18.288 108.369 19.08C109.569 19.848 110.493 20.94 111.141 22.356C111.813 23.748 112.149 25.356 112.149 27.18C112.149 29.004 111.813 30.612 111.141 32.004C110.493 33.372 109.581 34.428 108.405 35.172C107.229 35.916 105.873 36.288 104.337 36.288C103.137 36.288 102.045 36.048 101.061 35.568C100.101 35.064 99.3567 34.368 98.8287 33.48V40.284C98.8287 41.004 98.5887 41.58 98.1087 42.012C97.6287 42.444 96.9927 42.66 96.2007 42.66C95.3607 42.66 94.6767 42.432 94.1487 41.976C93.6447 41.52 93.3927 40.92 93.3927 40.176V20.52C93.3927 19.752 93.6327 19.14 94.1127 18.684C94.6167 18.204 95.2767 17.964 96.0927 17.964C96.9087 17.964 97.5567 18.204 98.0367 18.684C98.5167 19.14 98.7567 19.752 98.7567 20.52V20.808C99.2847 19.896 100.041 19.188 101.025 18.684C102.009 18.156 103.113 17.892 104.337 17.892ZM102.753 32.148C104.025 32.148 105.009 31.728 105.705 30.888C106.401 30.024 106.749 28.788 106.749 27.18C106.749 25.548 106.401 24.288 105.705 23.4C105.009 22.488 104.025 22.032 102.753 22.032C101.481 22.032 100.497 22.476 99.8007 23.364C99.1047 24.228 98.7567 25.476 98.7567 27.108C98.7567 28.716 99.1047 29.964 99.8007 30.852C100.497 31.716 101.481 32.148 102.753 32.148ZM125.123 32.256C125.843 32.304 126.371 32.484 126.707 32.796C127.043 33.108 127.211 33.564 127.211 34.164C127.211 34.86 126.935 35.388 126.383 35.748C125.831 36.108 125.039 36.252 124.007 36.18L122.999 36.108C118.799 35.772 116.699 33.576 116.699 29.52V22.392H115.259C114.467 22.392 113.867 22.224 113.459 21.888C113.051 21.528 112.847 21.024 112.847 20.376C112.847 19.704 113.051 19.2 113.459 18.864C113.867 18.504 114.467 18.324 115.259 18.324H116.699V15.516C116.699 14.724 116.939 14.1 117.419 13.644C117.923 13.188 118.595 12.96 119.435 12.96C120.275 12.96 120.935 13.188 121.415 13.644C121.895 14.1 122.135 14.724 122.135 15.516V18.324H124.655C126.287 18.324 127.103 19.008 127.103 20.376C127.103 21.024 126.899 21.528 126.491 21.888C126.083 22.224 125.471 22.392 124.655 22.392H122.135V29.916C122.135 30.636 122.303 31.188 122.639 31.572C122.975 31.932 123.467 32.136 124.115 32.184L125.123 32.256ZM137.713 36.288C135.841 36.288 134.197 35.916 132.781 35.172C131.365 34.404 130.273 33.336 129.505 31.968C128.737 30.576 128.353 28.944 128.353 27.072C128.353 25.2 128.737 23.58 129.505 22.212C130.273 20.82 131.365 19.752 132.781 19.008C134.197 18.264 135.841 17.892 137.713 17.892C139.585 17.892 141.229 18.264 142.645 19.008C144.061 19.752 145.153 20.82 145.921 22.212C146.689 23.58 147.073 25.2 147.073 27.072C147.073 28.944 146.689 30.576 145.921 31.968C145.153 33.336 144.061 34.404 142.645 35.172C141.229 35.916 139.585 36.288 137.713 36.288ZM137.713 32.148C140.353 32.148 141.673 30.456 141.673 27.072C141.673 25.368 141.325 24.096 140.629 23.256C139.957 22.416 138.985 21.996 137.713 21.996C135.073 21.996 133.753 23.688 133.753 27.072C133.753 30.456 135.073 32.148 137.713 32.148ZM162.477 36.324C159.981 36.324 157.797 35.796 155.925 34.74C154.053 33.684 152.613 32.172 151.605 30.204C150.597 28.236 150.093 25.932 150.093 23.292C150.093 20.652 150.597 18.36 151.605 16.416C152.613 14.448 154.053 12.936 155.925 11.88C157.797 10.824 159.981 10.296 162.477 10.296C165.621 10.296 168.333 11.16 170.613 12.888C170.973 13.176 171.225 13.464 171.369 13.752C171.513 14.04 171.585 14.4 171.585 14.832C171.585 15.456 171.405 15.996 171.045 16.452C170.709 16.884 170.289 17.1 169.785 17.1C169.449 17.1 169.149 17.064 168.885 16.992C168.645 16.896 168.369 16.74 168.057 16.524C167.097 15.9 166.209 15.456 165.393 15.192C164.577 14.904 163.701 14.76 162.765 14.76C160.461 14.76 158.721 15.48 157.545 16.92C156.393 18.336 155.817 20.46 155.817 23.292C155.817 29.004 158.133 31.86 162.765 31.86C163.653 31.86 164.493 31.728 165.285 31.464C166.077 31.176 167.001 30.72 168.057 30.096C168.417 29.88 168.717 29.736 168.957 29.664C169.197 29.568 169.473 29.52 169.785 29.52C170.289 29.52 170.709 29.748 171.045 30.204C171.405 30.636 171.585 31.164 171.585 31.788C171.585 32.22 171.501 32.592 171.333 32.904C171.189 33.192 170.949 33.468 170.613 33.732C168.333 35.46 165.621 36.324 162.477 36.324ZM182.384 17.892C184.976 17.892 186.896 18.528 188.144 19.8C189.392 21.048 190.016 22.968 190.016 25.56V33.696C190.016 34.488 189.788 35.112 189.332 35.568C188.876 36 188.24 36.216 187.424 36.216C186.656 36.216 186.032 35.988 185.552 35.532C185.096 35.052 184.868 34.44 184.868 33.696V33.444C184.508 34.332 183.908 35.028 183.068 35.532C182.228 36.036 181.244 36.288 180.116 36.288C178.916 36.288 177.824 36.048 176.84 35.568C175.88 35.088 175.112 34.416 174.536 33.552C173.984 32.688 173.708 31.728 173.708 30.672C173.708 29.376 174.032 28.356 174.68 27.612C175.352 26.868 176.42 26.328 177.884 25.992C179.348 25.656 181.352 25.488 183.896 25.488H184.832V24.84C184.832 23.832 184.604 23.1 184.148 22.644C183.716 22.188 182.984 21.96 181.952 21.96C180.92 21.96 179.432 22.32 177.488 23.04C176.936 23.304 176.468 23.436 176.084 23.436C175.556 23.436 175.136 23.256 174.824 22.896C174.512 22.512 174.356 22.02 174.356 21.42C174.356 20.94 174.464 20.544 174.68 20.232C174.896 19.92 175.244 19.632 175.724 19.368C176.564 18.912 177.584 18.552 178.784 18.288C180.008 18.024 181.208 17.892 182.384 17.892ZM181.304 32.544C182.36 32.544 183.212 32.196 183.86 31.5C184.508 30.78 184.832 29.856 184.832 28.728V28.116H184.22C182.276 28.116 180.908 28.272 180.116 28.584C179.348 28.896 178.964 29.46 178.964 30.276C178.964 30.948 179.18 31.5 179.612 31.932C180.068 32.34 180.632 32.544 181.304 32.544ZM204.628 17.964C205.348 17.916 205.912 18.084 206.32 18.468C206.752 18.828 206.968 19.38 206.968 20.124C206.968 20.916 206.776 21.504 206.392 21.888C206.008 22.272 205.324 22.512 204.34 22.608L203.26 22.716C201.94 22.86 200.98 23.292 200.38 24.012C199.804 24.732 199.516 25.656 199.516 26.784V33.66C199.516 34.5 199.252 35.136 198.724 35.568C198.22 36 197.584 36.216 196.816 36.216C196.024 36.216 195.364 36 194.836 35.568C194.332 35.136 194.08 34.5 194.08 33.66V20.448C194.08 19.656 194.344 19.044 194.872 18.612C195.4 18.18 196.036 17.964 196.78 17.964C197.5 17.964 198.1 18.18 198.58 18.612C199.06 19.02 199.3 19.596 199.3 20.34V21.312C199.732 20.28 200.38 19.488 201.244 18.936C202.132 18.384 203.092 18.072 204.124 18L204.628 17.964ZM222.362 30.744C222.842 30.744 223.226 30.936 223.514 31.32C223.826 31.704 223.982 32.196 223.982 32.796C223.982 33.204 223.862 33.588 223.622 33.948C223.382 34.284 223.046 34.572 222.614 34.812C221.798 35.244 220.85 35.604 219.77 35.892C218.69 36.156 217.694 36.288 216.782 36.288C214.862 36.288 213.182 35.916 211.742 35.172C210.326 34.428 209.234 33.372 208.466 32.004C207.698 30.612 207.314 28.98 207.314 27.108C207.314 25.308 207.686 23.712 208.43 22.32C209.174 20.928 210.206 19.848 211.526 19.08C212.846 18.288 214.346 17.892 216.026 17.892C217.634 17.892 219.038 18.252 220.238 18.972C221.462 19.668 222.41 20.676 223.082 21.996C223.754 23.292 224.09 24.816 224.09 26.568C224.09 27.096 223.958 27.504 223.694 27.792C223.454 28.056 223.106 28.188 222.65 28.188H212.57C212.738 29.604 213.17 30.636 213.866 31.284C214.562 31.908 215.558 32.22 216.854 32.22C217.55 32.22 218.174 32.136 218.726 31.968C219.278 31.8 219.89 31.572 220.562 31.284C220.898 31.14 221.222 31.02 221.534 30.924C221.846 30.804 222.122 30.744 222.362 30.744ZM216.17 21.636C215.138 21.636 214.31 21.972 213.686 22.644C213.062 23.292 212.69 24.24 212.57 25.488H219.518C219.446 24.216 219.122 23.256 218.546 22.608C217.994 21.96 217.202 21.636 216.17 21.636Z" fill="#4B4545"/>
<path d="M55.736 54C55.6053 54 55.4933 53.958 55.4 53.874C55.316 53.79 55.274 53.6873 55.274 53.566V44.564C55.274 44.4427 55.316 44.34 55.4 44.256C55.4933 44.172 55.6053 44.13 55.736 44.13H58.452C60.0107 44.13 61.2147 44.5547 62.064 45.404C62.9227 46.2533 63.352 47.4713 63.352 49.058C63.352 50.6447 62.9227 51.8673 62.064 52.726C61.2147 53.5753 60.0107 54 58.452 54H55.736ZM58.41 53.244C61.098 53.244 62.442 51.8487 62.442 49.058C62.442 46.2767 61.098 44.886 58.41 44.886H56.142V53.244H58.41ZM70.5682 52.544C70.6522 52.544 70.7222 52.5813 70.7782 52.656C70.8436 52.7213 70.8762 52.8007 70.8762 52.894C70.8762 53.0993 70.7176 53.3 70.4002 53.496C69.7282 53.8973 69.0189 54.098 68.2722 54.098C67.2362 54.098 66.4196 53.7853 65.8222 53.16C65.2249 52.5347 64.9262 51.676 64.9262 50.584C64.9262 49.884 65.0569 49.268 65.3182 48.736C65.5889 48.1947 65.9622 47.7793 66.4382 47.49C66.9236 47.1913 67.4789 47.042 68.1042 47.042C68.9816 47.042 69.6722 47.3267 70.1762 47.896C70.6896 48.456 70.9462 49.2307 70.9462 50.22C70.9462 50.388 70.9089 50.514 70.8342 50.598C70.7596 50.6727 70.6382 50.71 70.4702 50.71H65.8082C65.8362 51.5687 66.0602 52.222 66.4802 52.67C66.9002 53.118 67.4929 53.342 68.2582 53.342C68.6596 53.342 68.9956 53.2907 69.2662 53.188C69.5369 53.076 69.8262 52.9313 70.1342 52.754C70.3396 52.614 70.4842 52.544 70.5682 52.544ZM68.1042 47.742C67.4509 47.742 66.9282 47.9473 66.5362 48.358C66.1442 48.7687 65.9109 49.3427 65.8362 50.08H70.1622C70.1436 49.3333 69.9569 48.7593 69.6022 48.358C69.2476 47.9473 68.7482 47.742 68.1042 47.742ZM75.6697 53.356C75.931 53.384 76.0617 53.5053 76.0617 53.72C76.0617 53.832 76.0197 53.9207 75.9357 53.986C75.8517 54.0513 75.7164 54.0793 75.5297 54.07L75.1377 54.042C74.4284 53.9953 73.901 53.7807 73.5557 53.398C73.2197 53.006 73.0517 52.4133 73.0517 51.62V47.896H71.9877C71.8757 47.896 71.787 47.868 71.7217 47.812C71.6564 47.7467 71.6237 47.6627 71.6237 47.56C71.6237 47.4573 71.6564 47.3733 71.7217 47.308C71.787 47.2427 71.8757 47.21 71.9877 47.21H73.0517V45.474C73.0517 45.334 73.089 45.2267 73.1637 45.152C73.2384 45.0773 73.341 45.04 73.4717 45.04C73.6024 45.04 73.705 45.0773 73.7797 45.152C73.8637 45.2267 73.9057 45.334 73.9057 45.474V47.21H75.5997C75.721 47.21 75.8144 47.2427 75.8797 47.308C75.945 47.3733 75.9777 47.4573 75.9777 47.56C75.9777 47.6627 75.945 47.7467 75.8797 47.812C75.8144 47.868 75.721 47.896 75.5997 47.896H73.9057V51.662C73.9057 52.2407 74.0177 52.656 74.2417 52.908C74.4657 53.1507 74.8157 53.2907 75.2917 53.328L75.6697 53.356ZM82.5038 52.544C82.5878 52.544 82.6578 52.5813 82.7138 52.656C82.7791 52.7213 82.8118 52.8007 82.8118 52.894C82.8118 53.0993 82.6531 53.3 82.3358 53.496C81.6638 53.8973 80.9544 54.098 80.2078 54.098C79.1718 54.098 78.3551 53.7853 77.7578 53.16C77.1604 52.5347 76.8618 51.676 76.8618 50.584C76.8618 49.884 76.9924 49.268 77.2538 48.736C77.5244 48.1947 77.8978 47.7793 78.3738 47.49C78.8591 47.1913 79.4144 47.042 80.0398 47.042C80.9171 47.042 81.6078 47.3267 82.1118 47.896C82.6251 48.456 82.8818 49.2307 82.8818 50.22C82.8818 50.388 82.8444 50.514 82.7698 50.598C82.6951 50.6727 82.5738 50.71 82.4058 50.71H77.7438C77.7718 51.5687 77.9958 52.222 78.4158 52.67C78.8358 53.118 79.4284 53.342 80.1938 53.342C80.5951 53.342 80.9311 53.2907 81.2018 53.188C81.4724 53.076 81.7618 52.9313 82.0698 52.754C82.2751 52.614 82.4198 52.544 82.5038 52.544ZM80.0398 47.742C79.3864 47.742 78.8638 47.9473 78.4718 48.358C78.0798 48.7687 77.8464 49.3427 77.7718 50.08H82.0978C82.0791 49.3333 81.8924 48.7593 81.5378 48.358C81.1831 47.9473 80.6838 47.742 80.0398 47.742ZM89.8169 53.328C89.9383 53.44 89.9989 53.5567 89.9989 53.678C89.9989 53.7807 89.9616 53.874 89.8869 53.958C89.8123 54.0327 89.7236 54.07 89.6209 54.07C89.5276 54.07 89.4296 54.028 89.3269 53.944L85.5189 50.696V53.636C85.5189 53.776 85.4769 53.8833 85.3929 53.958C85.3183 54.0327 85.2203 54.07 85.0989 54.07C84.9683 54.07 84.8609 54.0327 84.7769 53.958C84.7023 53.8833 84.6649 53.776 84.6649 53.636V44.494C84.6649 44.354 84.7023 44.2467 84.7769 44.172C84.8609 44.0973 84.9683 44.06 85.0989 44.06C85.2203 44.06 85.3183 44.0973 85.3929 44.172C85.4769 44.2467 85.5189 44.354 85.5189 44.494V50.346L89.0049 47.21C89.1076 47.126 89.2056 47.084 89.2989 47.084C89.4109 47.084 89.5043 47.126 89.5789 47.21C89.6629 47.2847 89.7049 47.378 89.7049 47.49C89.7049 47.63 89.6489 47.742 89.5369 47.826L86.5129 50.5L89.8169 53.328ZM93.5075 54.098C93.1155 54.098 92.7281 54.0467 92.3455 53.944C91.9721 53.832 91.6408 53.6827 91.3515 53.496C91.1741 53.3747 91.0481 53.272 90.9735 53.188C90.9081 53.0947 90.8755 52.992 90.8755 52.88C90.8755 52.7867 90.9035 52.7073 90.9595 52.642C91.0248 52.5767 91.0995 52.544 91.1835 52.544C91.2675 52.544 91.4121 52.614 91.6175 52.754C91.8881 52.9313 92.1635 53.076 92.4435 53.188C92.7328 53.3 93.0921 53.356 93.5215 53.356C94.0721 53.356 94.5015 53.258 94.8095 53.062C95.1175 52.8567 95.2715 52.5673 95.2715 52.194C95.2715 51.97 95.2155 51.788 95.1035 51.648C94.9915 51.4987 94.8048 51.3727 94.5435 51.27C94.2821 51.158 93.9088 51.0507 93.4235 50.948C92.5928 50.7613 92.0001 50.5233 91.6455 50.234C91.3001 49.9353 91.1275 49.5387 91.1275 49.044C91.1275 48.4467 91.3608 47.966 91.8275 47.602C92.2941 47.2287 92.9008 47.042 93.6475 47.042C94.0115 47.042 94.3568 47.0887 94.6835 47.182C95.0195 47.2753 95.3088 47.4107 95.5515 47.588C95.8781 47.812 96.0415 48.0313 96.0415 48.246C96.0415 48.3393 96.0088 48.4233 95.9435 48.498C95.8875 48.5633 95.8175 48.596 95.7335 48.596C95.6401 48.596 95.4955 48.5213 95.2995 48.372C95.0475 48.1947 94.7955 48.0547 94.5435 47.952C94.3008 47.84 93.9881 47.784 93.6055 47.784C93.1201 47.784 92.7328 47.896 92.4435 48.12C92.1541 48.3347 92.0095 48.6287 92.0095 49.002C92.0095 49.2167 92.0561 49.394 92.1495 49.534C92.2521 49.674 92.4201 49.8 92.6535 49.912C92.8961 50.0147 93.2415 50.1173 93.6895 50.22C94.3335 50.3693 94.8281 50.528 95.1735 50.696C95.5188 50.864 95.7661 51.0647 95.9155 51.298C96.0648 51.5313 96.1395 51.83 96.1395 52.194C96.1395 52.7633 95.8968 53.2253 95.4115 53.58C94.9355 53.9253 94.3008 54.098 93.5075 54.098ZM98.429 54.07C98.2983 54.07 98.191 54.0327 98.107 53.958C98.0323 53.8833 97.995 53.776 97.995 53.636V47.504C97.995 47.364 98.0323 47.2567 98.107 47.182C98.191 47.1073 98.2983 47.07 98.429 47.07C98.5597 47.07 98.6623 47.1073 98.737 47.182C98.8117 47.2567 98.849 47.364 98.849 47.504V53.636C98.849 53.776 98.8117 53.8833 98.737 53.958C98.6623 54.0327 98.5597 54.07 98.429 54.07ZM98.429 45.488C98.2423 45.488 98.0883 45.432 97.967 45.32C97.855 45.208 97.799 45.0633 97.799 44.886C97.799 44.6993 97.855 44.55 97.967 44.438C98.0883 44.326 98.2423 44.27 98.429 44.27C98.6157 44.27 98.765 44.326 98.877 44.438C98.9983 44.55 99.059 44.6993 99.059 44.886C99.059 45.0633 98.9983 45.208 98.877 45.32C98.765 45.432 98.6157 45.488 98.429 45.488ZM105.242 54C105.111 54 104.999 53.958 104.906 53.874C104.822 53.79 104.78 53.6873 104.78 53.566V44.564C104.78 44.4427 104.822 44.34 104.906 44.256C104.999 44.172 105.111 44.13 105.242 44.13H107.958C109.517 44.13 110.721 44.5547 111.57 45.404C112.429 46.2533 112.858 47.4713 112.858 49.058C112.858 50.6447 112.429 51.8673 111.57 52.726C110.721 53.5753 109.517 54 107.958 54H105.242ZM107.916 53.244C110.604 53.244 111.948 51.8487 111.948 49.058C111.948 46.2767 110.604 44.886 107.916 44.886H105.648V53.244H107.916ZM115.3 54.07C115.169 54.07 115.062 54.0327 114.978 53.958C114.903 53.8833 114.866 53.776 114.866 53.636V47.504C114.866 47.364 114.903 47.2567 114.978 47.182C115.062 47.1073 115.169 47.07 115.3 47.07C115.431 47.07 115.533 47.1073 115.608 47.182C115.683 47.2567 115.72 47.364 115.72 47.504V53.636C115.72 53.776 115.683 53.8833 115.608 53.958C115.533 54.0327 115.431 54.07 115.3 54.07ZM115.3 45.488C115.113 45.488 114.959 45.432 114.838 45.32C114.726 45.208 114.67 45.0633 114.67 44.886C114.67 44.6993 114.726 44.55 114.838 44.438C114.959 44.326 115.113 44.27 115.3 44.27C115.487 44.27 115.636 44.326 115.748 44.438C115.869 44.55 115.93 44.6993 115.93 44.886C115.93 45.0633 115.869 45.208 115.748 45.32C115.636 45.432 115.487 45.488 115.3 45.488ZM121.148 47.042C122.781 47.042 123.598 47.9193 123.598 49.674V53.636C123.598 53.7667 123.56 53.874 123.486 53.958C123.411 54.0327 123.308 54.07 123.178 54.07C123.047 54.07 122.94 54.0327 122.856 53.958C122.781 53.874 122.744 53.7667 122.744 53.636V49.73C122.744 49.058 122.608 48.568 122.338 48.26C122.067 47.952 121.638 47.798 121.05 47.798C120.378 47.798 119.836 48.0033 119.426 48.414C119.024 48.8247 118.824 49.3753 118.824 50.066V53.636C118.824 53.7667 118.786 53.874 118.712 53.958C118.637 54.0327 118.534 54.07 118.404 54.07C118.273 54.07 118.166 54.0327 118.082 53.958C118.007 53.874 117.97 53.7667 117.97 53.636V47.504C117.97 47.3733 118.007 47.2707 118.082 47.196C118.166 47.112 118.273 47.07 118.404 47.07C118.525 47.07 118.623 47.1073 118.698 47.182C118.772 47.2567 118.81 47.3593 118.81 47.49V48.372C119.024 47.9427 119.332 47.616 119.734 47.392C120.144 47.1587 120.616 47.042 121.148 47.042ZM126.251 54.07C126.121 54.07 126.013 54.0327 125.929 53.958C125.855 53.8833 125.817 53.776 125.817 53.636V47.504C125.817 47.364 125.855 47.2567 125.929 47.182C126.013 47.1073 126.121 47.07 126.251 47.07C126.382 47.07 126.485 47.1073 126.559 47.182C126.634 47.2567 126.671 47.364 126.671 47.504V53.636C126.671 53.776 126.634 53.8833 126.559 53.958C126.485 54.0327 126.382 54.07 126.251 54.07ZM126.251 45.488C126.065 45.488 125.911 45.432 125.789 45.32C125.677 45.208 125.621 45.0633 125.621 44.886C125.621 44.6993 125.677 44.55 125.789 44.438C125.911 44.326 126.065 44.27 126.251 44.27C126.438 44.27 126.587 44.326 126.699 44.438C126.821 44.55 126.881 44.6993 126.881 44.886C126.881 45.0633 126.821 45.208 126.699 45.32C126.587 45.432 126.438 45.488 126.251 45.488ZM133.05 54C132.929 54 132.821 53.9627 132.728 53.888C132.644 53.8133 132.602 53.72 132.602 53.608V44.508C132.602 44.3773 132.639 44.27 132.714 44.186C132.798 44.102 132.905 44.06 133.036 44.06C133.176 44.06 133.283 44.102 133.358 44.186C133.433 44.2607 133.47 44.368 133.47 44.508V53.244H138.258C138.379 53.244 138.473 53.2767 138.538 53.342C138.613 53.4073 138.65 53.5007 138.65 53.622C138.65 53.7433 138.613 53.8367 138.538 53.902C138.473 53.9673 138.379 54 138.258 54H133.05ZM145.121 52.544C145.205 52.544 145.275 52.5813 145.331 52.656C145.396 52.7213 145.429 52.8007 145.429 52.894C145.429 53.0993 145.27 53.3 144.953 53.496C144.281 53.8973 143.572 54.098 142.825 54.098C141.789 54.098 140.972 53.7853 140.375 53.16C139.778 52.5347 139.479 51.676 139.479 50.584C139.479 49.884 139.61 49.268 139.871 48.736C140.142 48.1947 140.515 47.7793 140.991 47.49C141.476 47.1913 142.032 47.042 142.657 47.042C143.534 47.042 144.225 47.3267 144.729 47.896C145.242 48.456 145.499 49.2307 145.499 50.22C145.499 50.388 145.462 50.514 145.387 50.598C145.312 50.6727 145.191 50.71 145.023 50.71H140.361C140.389 51.5687 140.613 52.222 141.033 52.67C141.453 53.118 142.046 53.342 142.811 53.342C143.212 53.342 143.548 53.2907 143.819 53.188C144.09 53.076 144.379 52.9313 144.687 52.754C144.892 52.614 145.037 52.544 145.121 52.544ZM142.657 47.742C142.004 47.742 141.481 47.9473 141.089 48.358C140.697 48.7687 140.464 49.3427 140.389 50.08H144.715C144.696 49.3333 144.51 48.7593 144.155 48.358C143.8 47.9473 143.301 47.742 142.657 47.742ZM150.474 47.042C151.071 47.042 151.599 47.1913 152.056 47.49C152.513 47.7793 152.868 48.1947 153.12 48.736C153.372 49.268 153.498 49.8887 153.498 50.598C153.498 51.298 153.372 51.914 153.12 52.446C152.868 52.9687 152.513 53.3747 152.056 53.664C151.599 53.9533 151.071 54.098 150.474 54.098C149.923 54.098 149.447 53.9813 149.046 53.748C148.645 53.5053 148.341 53.1553 148.136 52.698V56.156C148.136 56.2867 148.099 56.3893 148.024 56.464C147.949 56.548 147.847 56.59 147.716 56.59C147.585 56.59 147.478 56.548 147.394 56.464C147.319 56.3893 147.282 56.2867 147.282 56.156V47.504C147.282 47.3733 147.319 47.2707 147.394 47.196C147.478 47.112 147.585 47.07 147.716 47.07C147.847 47.07 147.949 47.112 148.024 47.196C148.099 47.2707 148.136 47.3733 148.136 47.504V48.442C148.341 47.9847 148.645 47.6393 149.046 47.406C149.447 47.1633 149.923 47.042 150.474 47.042ZM150.348 53.342C151.067 53.342 151.622 53.104 152.014 52.628C152.415 52.1427 152.616 51.466 152.616 50.598C152.616 49.7113 152.415 49.0207 152.014 48.526C151.622 48.0313 151.071 47.784 150.362 47.784C149.653 47.784 149.102 48.0267 148.71 48.512C148.327 48.9973 148.136 49.6833 148.136 50.57C148.136 51.4567 148.327 52.1427 148.71 52.628C149.093 53.104 149.639 53.342 150.348 53.342ZM158.262 53.356C158.523 53.384 158.654 53.5053 158.654 53.72C158.654 53.832 158.612 53.9207 158.528 53.986C158.444 54.0513 158.308 54.0793 158.122 54.07L157.73 54.042C157.02 53.9953 156.493 53.7807 156.148 53.398C155.812 53.006 155.644 52.4133 155.644 51.62V47.896H154.58C154.468 47.896 154.379 47.868 154.314 47.812C154.248 47.7467 154.216 47.6627 154.216 47.56C154.216 47.4573 154.248 47.3733 154.314 47.308C154.379 47.2427 154.468 47.21 154.58 47.21H155.644V45.474C155.644 45.334 155.681 45.2267 155.756 45.152C155.83 45.0773 155.933 45.04 156.064 45.04C156.194 45.04 156.297 45.0773 156.372 45.152C156.456 45.2267 156.498 45.334 156.498 45.474V47.21H158.192C158.313 47.21 158.406 47.2427 158.472 47.308C158.537 47.3733 158.57 47.4573 158.57 47.56C158.57 47.6627 158.537 47.7467 158.472 47.812C158.406 47.868 158.313 47.896 158.192 47.896H156.498V51.662C156.498 52.2407 156.61 52.656 156.834 52.908C157.058 53.1507 157.408 53.2907 157.883 53.328L158.262 53.356ZM162.59 54.098C161.964 54.098 161.414 53.9533 160.938 53.664C160.471 53.3747 160.107 52.964 159.846 52.432C159.584 51.9 159.454 51.2793 159.454 50.57C159.454 49.8607 159.584 49.24 159.846 48.708C160.107 48.176 160.471 47.7653 160.938 47.476C161.414 47.1867 161.964 47.042 162.59 47.042C163.206 47.042 163.752 47.1867 164.228 47.476C164.704 47.7653 165.068 48.176 165.32 48.708C165.581 49.24 165.712 49.8607 165.712 50.57C165.712 51.2793 165.581 51.9 165.32 52.432C165.068 52.964 164.704 53.3747 164.228 53.664C163.752 53.9533 163.206 54.098 162.59 54.098ZM162.576 53.342C163.294 53.342 163.85 53.104 164.242 52.628C164.634 52.152 164.83 51.466 164.83 50.57C164.83 49.6927 164.629 49.0113 164.228 48.526C163.836 48.0313 163.29 47.784 162.59 47.784C161.88 47.784 161.33 48.0313 160.938 48.526C160.546 49.0113 160.35 49.6927 160.35 50.57C160.35 51.466 160.541 52.152 160.924 52.628C161.306 53.104 161.857 53.342 162.576 53.342ZM169.714 54.098C169.322 54.098 168.935 54.0467 168.552 53.944C168.179 53.832 167.848 53.6827 167.558 53.496C167.381 53.3747 167.255 53.272 167.18 53.188C167.115 53.0947 167.082 52.992 167.082 52.88C167.082 52.7867 167.11 52.7073 167.166 52.642C167.232 52.5767 167.306 52.544 167.39 52.544C167.474 52.544 167.619 52.614 167.824 52.754C168.095 52.9313 168.37 53.076 168.65 53.188C168.94 53.3 169.299 53.356 169.728 53.356C170.279 53.356 170.708 53.258 171.016 53.062C171.324 52.8567 171.478 52.5673 171.478 52.194C171.478 51.97 171.422 51.788 171.31 51.648C171.198 51.4987 171.012 51.3727 170.75 51.27C170.489 51.158 170.116 51.0507 169.63 50.948C168.8 50.7613 168.207 50.5233 167.852 50.234C167.507 49.9353 167.334 49.5387 167.334 49.044C167.334 48.4467 167.568 47.966 168.034 47.602C168.501 47.2287 169.108 47.042 169.854 47.042C170.218 47.042 170.564 47.0887 170.89 47.182C171.226 47.2753 171.516 47.4107 171.758 47.588C172.085 47.812 172.248 48.0313 172.248 48.246C172.248 48.3393 172.216 48.4233 172.15 48.498C172.094 48.5633 172.024 48.596 171.94 48.596C171.847 48.596 171.702 48.5213 171.506 48.372C171.254 48.1947 171.002 48.0547 170.75 47.952C170.508 47.84 170.195 47.784 169.812 47.784C169.327 47.784 168.94 47.896 168.65 48.12C168.361 48.3347 168.216 48.6287 168.216 49.002C168.216 49.2167 168.263 49.394 168.356 49.534C168.459 49.674 168.627 49.8 168.86 49.912C169.103 50.0147 169.448 50.1173 169.896 50.22C170.54 50.3693 171.035 50.528 171.38 50.696C171.726 50.864 171.973 51.0647 172.122 51.298C172.272 51.5313 172.346 51.83 172.346 52.194C172.346 52.7633 172.104 53.2253 171.618 53.58C171.142 53.9253 170.508 54.098 169.714 54.098ZM177.394 47.042C177.991 47.042 178.519 47.1913 178.976 47.49C179.433 47.7793 179.788 48.1947 180.04 48.736C180.292 49.268 180.418 49.8887 180.418 50.598C180.418 51.298 180.292 51.914 180.04 52.446C179.788 52.9687 179.433 53.3747 178.976 53.664C178.519 53.9533 177.991 54.098 177.394 54.098C176.843 54.098 176.367 53.9813 175.966 53.748C175.565 53.5053 175.261 53.1553 175.056 52.698V56.156C175.056 56.2867 175.019 56.3893 174.944 56.464C174.869 56.548 174.767 56.59 174.636 56.59C174.505 56.59 174.398 56.548 174.314 56.464C174.239 56.3893 174.202 56.2867 174.202 56.156V47.504C174.202 47.3733 174.239 47.2707 174.314 47.196C174.398 47.112 174.505 47.07 174.636 47.07C174.767 47.07 174.869 47.112 174.944 47.196C175.019 47.2707 175.056 47.3733 175.056 47.504V48.442C175.261 47.9847 175.565 47.6393 175.966 47.406C176.367 47.1633 176.843 47.042 177.394 47.042ZM177.268 53.342C177.987 53.342 178.542 53.104 178.934 52.628C179.335 52.1427 179.536 51.466 179.536 50.598C179.536 49.7113 179.335 49.0207 178.934 48.526C178.542 48.0313 177.991 47.784 177.282 47.784C176.573 47.784 176.022 48.0267 175.63 48.512C175.247 48.9973 175.056 49.6833 175.056 50.57C175.056 51.4567 175.247 52.1427 175.63 52.628C176.013 53.104 176.559 53.342 177.268 53.342ZM182.661 54.07C182.531 54.07 182.423 54.0327 182.339 53.958C182.265 53.8833 182.227 53.776 182.227 53.636V47.504C182.227 47.364 182.265 47.2567 182.339 47.182C182.423 47.1073 182.531 47.07 182.661 47.07C182.792 47.07 182.895 47.1073 182.969 47.182C183.044 47.2567 183.081 47.364 183.081 47.504V53.636C183.081 53.776 183.044 53.8833 182.969 53.958C182.895 54.0327 182.792 54.07 182.661 54.07ZM182.661 45.488C182.475 45.488 182.321 45.432 182.199 45.32C182.087 45.208 182.031 45.0633 182.031 44.886C182.031 44.6993 182.087 44.55 182.199 44.438C182.321 44.326 182.475 44.27 182.661 44.27C182.848 44.27 182.997 44.326 183.109 44.438C183.231 44.55 183.291 44.6993 183.291 44.886C183.291 45.0633 183.231 45.208 183.109 45.32C182.997 45.432 182.848 45.488 182.661 45.488ZM188.495 47.07C188.672 47.0607 188.798 47.084 188.873 47.14C188.948 47.196 188.985 47.2893 188.985 47.42C188.985 47.6533 188.845 47.784 188.565 47.812L188.145 47.854C187.482 47.9193 186.988 48.1573 186.661 48.568C186.344 48.9787 186.185 49.4593 186.185 50.01V53.636C186.185 53.776 186.148 53.8833 186.073 53.958C185.998 54.0327 185.896 54.07 185.765 54.07C185.634 54.07 185.527 54.0327 185.443 53.958C185.368 53.8833 185.331 53.776 185.331 53.636V47.504C185.331 47.364 185.368 47.2567 185.443 47.182C185.527 47.1073 185.634 47.07 185.765 47.07C185.886 47.07 185.984 47.1073 186.059 47.182C186.134 47.2567 186.171 47.3593 186.171 47.49V48.4C186.554 47.5973 187.263 47.1587 188.299 47.084L188.495 47.07ZM192.64 54.098C192.015 54.098 191.464 53.9533 190.988 53.664C190.522 53.3747 190.158 52.964 189.896 52.432C189.635 51.9 189.504 51.2793 189.504 50.57C189.504 49.8607 189.635 49.24 189.896 48.708C190.158 48.176 190.522 47.7653 190.988 47.476C191.464 47.1867 192.015 47.042 192.64 47.042C193.256 47.042 193.802 47.1867 194.278 47.476C194.754 47.7653 195.118 48.176 195.37 48.708C195.632 49.24 195.762 49.8607 195.762 50.57C195.762 51.2793 195.632 51.9 195.37 52.432C195.118 52.964 194.754 53.3747 194.278 53.664C193.802 53.9533 193.256 54.098 192.64 54.098ZM192.626 53.342C193.345 53.342 193.9 53.104 194.292 52.628C194.684 52.152 194.88 51.466 194.88 50.57C194.88 49.6927 194.68 49.0113 194.278 48.526C193.886 48.0313 193.34 47.784 192.64 47.784C191.931 47.784 191.38 48.0313 190.988 48.526C190.596 49.0113 190.4 49.6927 190.4 50.57C190.4 51.466 190.592 52.152 190.974 52.628C191.357 53.104 191.908 53.342 192.626 53.342ZM199.765 54.098C199.373 54.098 198.986 54.0467 198.603 53.944C198.23 53.832 197.899 53.6827 197.609 53.496C197.432 53.3747 197.306 53.272 197.231 53.188C197.166 53.0947 197.133 52.992 197.133 52.88C197.133 52.7867 197.161 52.7073 197.217 52.642C197.283 52.5767 197.357 52.544 197.441 52.544C197.525 52.544 197.67 52.614 197.875 52.754C198.146 52.9313 198.421 53.076 198.701 53.188C198.991 53.3 199.35 53.356 199.779 53.356C200.33 53.356 200.759 53.258 201.067 53.062C201.375 52.8567 201.529 52.5673 201.529 52.194C201.529 51.97 201.473 51.788 201.361 51.648C201.249 51.4987 201.063 51.3727 200.801 51.27C200.54 51.158 200.167 51.0507 199.681 50.948C198.851 50.7613 198.258 50.5233 197.903 50.234C197.558 49.9353 197.385 49.5387 197.385 49.044C197.385 48.4467 197.619 47.966 198.085 47.602C198.552 47.2287 199.159 47.042 199.905 47.042C200.269 47.042 200.615 47.0887 200.941 47.182C201.277 47.2753 201.567 47.4107 201.809 47.588C202.136 47.812 202.299 48.0313 202.299 48.246C202.299 48.3393 202.267 48.4233 202.201 48.498C202.145 48.5633 202.075 48.596 201.991 48.596C201.898 48.596 201.753 48.5213 201.557 48.372C201.305 48.1947 201.053 48.0547 200.801 47.952C200.559 47.84 200.246 47.784 199.863 47.784C199.378 47.784 198.991 47.896 198.701 48.12C198.412 48.3347 198.267 48.6287 198.267 49.002C198.267 49.2167 198.314 49.394 198.407 49.534C198.51 49.674 198.678 49.8 198.911 49.912C199.154 50.0147 199.499 50.1173 199.947 50.22C200.591 50.3693 201.086 50.528 201.431 50.696C201.777 50.864 202.024 51.0647 202.173 51.298C202.323 51.5313 202.397 51.83 202.397 52.194C202.397 52.7633 202.155 53.2253 201.669 53.58C201.193 53.9253 200.559 54.098 199.765 54.098ZM204.687 54.07C204.556 54.07 204.449 54.0327 204.365 53.958C204.29 53.8833 204.253 53.776 204.253 53.636V47.504C204.253 47.364 204.29 47.2567 204.365 47.182C204.449 47.1073 204.556 47.07 204.687 47.07C204.817 47.07 204.92 47.1073 204.995 47.182C205.069 47.2567 205.107 47.364 205.107 47.504V53.636C205.107 53.776 205.069 53.8833 204.995 53.958C204.92 54.0327 204.817 54.07 204.687 54.07ZM204.687 45.488C204.5 45.488 204.346 45.432 204.225 45.32C204.113 45.208 204.057 45.0633 204.057 44.886C204.057 44.6993 204.113 44.55 204.225 44.438C204.346 44.326 204.5 44.27 204.687 44.27C204.873 44.27 205.023 44.326 205.135 44.438C205.256 44.55 205.317 44.6993 205.317 44.886C205.317 45.0633 205.256 45.208 205.135 45.32C205.023 45.432 204.873 45.488 204.687 45.488ZM209.554 54.098C209.162 54.098 208.775 54.0467 208.392 53.944C208.019 53.832 207.688 53.6827 207.398 53.496C207.221 53.3747 207.095 53.272 207.02 53.188C206.955 53.0947 206.922 52.992 206.922 52.88C206.922 52.7867 206.95 52.7073 207.006 52.642C207.072 52.5767 207.146 52.544 207.23 52.544C207.314 52.544 207.459 52.614 207.664 52.754C207.935 52.9313 208.21 53.076 208.49 53.188C208.78 53.3 209.139 53.356 209.568 53.356C210.119 53.356 210.548 53.258 210.856 53.062C211.164 52.8567 211.318 52.5673 211.318 52.194C211.318 51.97 211.262 51.788 211.15 51.648C211.038 51.4987 210.852 51.3727 210.59 51.27C210.329 51.158 209.956 51.0507 209.47 50.948C208.64 50.7613 208.047 50.5233 207.692 50.234C207.347 49.9353 207.174 49.5387 207.174 49.044C207.174 48.4467 207.408 47.966 207.874 47.602C208.341 47.2287 208.948 47.042 209.694 47.042C210.058 47.042 210.404 47.0887 210.73 47.182C211.066 47.2753 211.356 47.4107 211.598 47.588C211.925 47.812 212.088 48.0313 212.088 48.246C212.088 48.3393 212.056 48.4233 211.99 48.498C211.934 48.5633 211.864 48.596 211.78 48.596C211.687 48.596 211.542 48.5213 211.346 48.372C211.094 48.1947 210.842 48.0547 210.59 47.952C210.348 47.84 210.035 47.784 209.652 47.784C209.167 47.784 208.78 47.896 208.49 48.12C208.201 48.3347 208.056 48.6287 208.056 49.002C208.056 49.2167 208.103 49.394 208.196 49.534C208.299 49.674 208.467 49.8 208.7 49.912C208.943 50.0147 209.288 50.1173 209.736 50.22C210.38 50.3693 210.875 50.528 211.22 50.696C211.566 50.864 211.813 51.0647 211.962 51.298C212.112 51.5313 212.186 51.83 212.186 52.194C212.186 52.7633 211.944 53.2253 211.458 53.58C210.982 53.9253 210.348 54.098 209.554 54.098Z" fill="#4B4545"/>
<path d="M0 15.8181V35.0454C0 37.9951 2.39121 40.3863 5.34091 40.3863H41.6591C44.6088 40.3863 47 37.9951 47 35.0454V27.2413C47 25.8899 46.4877 24.5888 45.5664 23.6001L34.9212 12.1769C33.9109 11.0928 32.4957 10.4772 31.0139 10.4772H5.34091C2.39121 10.4772 0 12.8684 0 15.8181Z" fill="url(#paint0_linear)"/>
<g filter="url(#filter0_b)">
<path d="M20.2955 14.75C19.7289 14.75 19.1855 14.5249 18.7848 14.1243C18.3842 13.7236 18.1591 13.1802 18.1591 12.6136V7.27273H11.75V12.6136C11.75 13.1802 11.5249 13.7236 11.1243 14.1243C10.7236 14.5249 10.1802 14.75 9.61365 14.75C9.04705 14.75 8.50366 14.5249 8.10301 14.1243C7.70237 13.7236 7.47729 13.1802 7.47729 12.6136V7.27273C7.47729 6.13953 7.92745 5.05274 8.72874 4.25145C9.53003 3.45016 10.6168 3 11.75 3H18.1591C19.2923 3 20.3791 3.45016 21.1804 4.25145C21.9817 5.05274 22.4318 6.13953 22.4318 7.27273V12.6136C22.4318 13.1802 22.2068 13.7236 21.8061 14.1243C21.4055 14.5249 20.8621 14.75 20.2955 14.75Z" fill="#E2E0E0"/>
</g>
<g filter="url(#filter1_b)">
<circle cx="11.75" cy="40.3864" r="5.34091" fill="#E2E0E0"/>
</g>
<g filter="url(#filter2_b)">
<circle cx="34.1818" cy="40.3864" r="5.34091" fill="#E2E0E0"/>
</g>
<g filter="url(#filter3_b)">
<path d="M7.47729 22.2272V26.4999H18.1591V22.2272H7.47729Z" fill="white" fill-opacity="0.8"/>
</g>
<g filter="url(#filter4_b)">
<path d="M10.6818 29.7044H14.9546L14.9546 19.0226H10.6818V29.7044Z" fill="white" fill-opacity="0.8"/>
</g>
<defs>
<filter id="filter0_b" x="-17.5227" y="-22" width="64.9545" height="61.75" filterUnits="userSpaceOnUse" color-interpolation-filters="sRGB">
<feFlood flood-opacity="0" result="BackgroundImageFix"/>
<feGaussianBlur in="BackgroundImage" stdDeviation="12.5"/>
<feComposite in2="SourceAlpha" operator="in" result="effect1_backgroundBlur"/>
<feBlend mode="normal" in="SourceGraphic" in2="effect1_backgroundBlur" result="shape"/>
</filter>
<filter id="filter1_b" x="-18.5909" y="10.0455" width="60.6818" height="60.6818" filterUnits="userSpaceOnUse" color-interpolation-filters="sRGB">
<feFlood flood-opacity="0" result="BackgroundImageFix"/>
<feGaussianBlur in="BackgroundImage" stdDeviation="12.5"/>
<feComposite in2="SourceAlpha" operator="in" result="effect1_backgroundBlur"/>
<feBlend mode="normal" in="SourceGraphic" in2="effect1_backgroundBlur" result="shape"/>
</filter>
<filter id="filter2_b" x="3.84089" y="10.0455" width="60.6818" height="60.6818" filterUnits="userSpaceOnUse" color-interpolation-filters="sRGB">
<feFlood flood-opacity="0" result="BackgroundImageFix"/>
<feGaussianBlur in="BackgroundImage" stdDeviation="12.5"/>
<feComposite in2="SourceAlpha" operator="in" result="effect1_backgroundBlur"/>
<feBlend mode="normal" in="SourceGraphic" in2="effect1_backgroundBlur" result="shape"/>
</filter>
<filter id="filter3_b" x="-17.5227" y="-2.77283" width="60.6818" height="54.2727" filterUnits="userSpaceOnUse" color-interpolation-filters="sRGB">
<feFlood flood-opacity="0" result="BackgroundImageFix"/>
<feGaussianBlur in="BackgroundImage" stdDeviation="12.5"/>
<feComposite in2="SourceAlpha" operator="in" result="effect1_backgroundBlur"/>
<feBlend mode="normal" in="SourceGraphic" in2="effect1_backgroundBlur" result="shape"/>
</filter>
<filter id="filter4_b" x="-14.3182" y="-5.97742" width="54.2727" height="60.6818" filterUnits="userSpaceOnUse" color-interpolation-filters="sRGB">
<feFlood flood-opacity="0" result="BackgroundImageFix"/>
<feGaussianBlur in="BackgroundImage" stdDeviation="12.5"/>
<feComposite in2="SourceAlpha" operator="in" result="effect1_backgroundBlur"/>
<feBlend mode="normal" in="SourceGraphic" in2="effect1_backgroundBlur" result="shape"/>
</filter>
<linearGradient id="paint0_linear" x1="-2.51983e-07" y1="24.4347" x2="45.8722" y2="24.7564" gradientUnits="userSpaceOnUse">
<stop stop-color="#AA80FF"/>
<stop offset="1" stop-color="#A071FF" stop-opacity="0.65"/>
</linearGradient>
</defs>
</svg>
